HIERARCHY
ROOT Hips
{
	OFFSET -32.860001 56.121803 44.745396
	CHANNELS 6 Xposition Yposition Zposition Zrotation Xrotation Yrotation
	JOINT Chest
	{
		OFFSET -0.637402 0.831600 5.390099
		CHANNELS 6 Xposition Yposition Zposition Zrotation Xrotation Yrotation
		JOINT Chest2
		{
			OFFSET 0.000000 0.000000 4.429901
			CHANNELS 6 Xposition Yposition Zposition Zrotation Xrotation Yrotation
			JOINT Neck
			{
				OFFSET 0.000000 0.000000 10.301395
				CHANNELS 6 Xposition Yposition Zposition Zrotation Xrotation Yrotation
				JOINT Head
				{
					OFFSET 0.000000 0.000000 2.173897
					CHANNELS 6 Xposition Yposition Zposition Zrotation Xrotation Yrotation
					End Site
					{
						OFFSET 0.000000 0.000000 8.298004
					}
				}
			}
			JOINT LeftCollar
			{
				OFFSET 2.142401 -0.572701 5.717800
				CHANNELS 6 Xposition Yposition Zposition Zrotation Xrotation Yrotation
				JOINT LeftShoulder
				{
					OFFSET 5.674000 0.000000 0.000000
					CHANNELS 6 Xposition Yposition Zposition Zrotation Xrotation Yrotation
					JOINT LeftElbow
					{
						OFFSET 0.000000 0.000000 -12.238701
						CHANNELS 6 Xposition Yposition Zposition Zrotation Xrotation Yrotation
						JOINT LeftWrist
						{
							OFFSET 0.000000 0.000000 -10.253700
							CHANNELS 6 Xposition Yposition Zposition Zrotation Xrotation Yrotation
							End Site
							{
								OFFSET 0.000000 0.000000 -2.173901
							}
						}
					}
				}
			}
			JOINT RightCollar
			{
				OFFSET -2.882599 -1.580101 6.695801
				CHANNELS 6 Xposition Yposition Zposition Zrotation Xrotation Yrotation
				JOINT RightShoulder
				{
					OFFSET -4.235600 0.000000 0.000000
					CHANNELS 6 Xposition Yposition Zposition Zrotation Xrotation Yrotation
					JOINT RightElbow
					{
						OFFSET 0.000000 0.000000 -10.709900
						CHANNELS 6 Xposition Yposition Zposition Zrotation Xrotation Yrotation
						JOINT RightWrist
						{
							OFFSET 0.000000 0.000000 -11.716801
							CHANNELS 6 Xposition Yposition Zposition Zrotation Xrotation Yrotation
							End Site
							{
								OFFSET 0.000000 0.000000 -2.173901
							}
						}
					}
				}
			}
		}
	}
	JOINT LeftHip
	{
		OFFSET 2.279499 0.210400 -2.475502
		CHANNELS 6 Xposition Yposition Zposition Zrotation Xrotation Yrotation
		JOINT LeftKnee
		{
			OFFSET 0.000000 -0.000004 -20.742800
			CHANNELS 6 Xposition Yposition Zposition Zrotation Xrotation Yrotation
			JOINT LeftAnkle
			{
				OFFSET 0.000000 0.000000 -16.666000
				CHANNELS 6 Xposition Yposition Zposition Zrotation Xrotation Yrotation
				End Site
				{
					OFFSET 0.000000 -8.310898 0.000000
				}
			}
		}
	}
	JOINT RightHip
	{
		OFFSET -1.961899 0.232300 -2.727402
		CHANNELS 6 Xposition Yposition Zposition Zrotation Xrotation Yrotation
		JOINT RightKnee
		{
			OFFSET 0.000000 -0.000004 -20.526800
			CHANNELS 6 Xposition Yposition Zposition Zrotation Xrotation Yrotation
			JOINT RightAnkle
			{
				OFFSET 0.000000 0.000000 -16.867300
				CHANNELS 6 Xposition Yposition Zposition Zrotation Xrotation Yrotation
				End Site
				{
					OFFSET 0.000000 -7.186401 0.000000
				}
			}
		}
	}
}
MOTION
Frames: 10
Frame Time: 0.041667
-35.348492 45.421703 45.157894 1086.342134 0.256899 -3.805132 -0.637404 0.831597 5.390103 -6.139824 -0.797925 1.314009 -0.000005 0.000002 4.429892 5.068445 -0.703226 0.410200 -0.000002 -0.000009 10.301390 410.187830 -6.254538 -7.071806 -0.000004 -0.000005 2.173901 -356.875690 1.333057 4.229257 2.142398 -0.572703 5.717802 0.671566 -2.545039 -2.913856 5.673999 -0.000003 -0.000002 170.412004 158.898040 126.303626 0.000002 0.000011 -12.238692 164.250340 -511.858748 -178.468772 -0.000003 -0.000006 -10.253700 -525.034292 -6.699102 22.210331 -2.882601 -1.580105 6.695789 0.341241 -3.647960 30.343341 -4.235610 0.000005 0.000001 0.436807 -64.969961 95.049691 0.000001 0.000004 -10.709900 -65.072435 -18.913144 -25.664909 -0.000003 0.000008 -11.716803 -362.026199 1.625090 13.871260 2.279500 0.210405 -2.475500 374.531565 -14.261416 -4.880857 0.000000 -0.000002 -20.742796 -17.593360 30.419122 1.572854 -0.000004 -0.000001 -16.666004 3.924157 22.009074 12.942829 -1.961894 0.232298 -2.727396 -364.734123 -2.833787 12.937019 -0.000004 -0.000003 -20.526796 516.576441 159.013798 -179.246499 -0.000000 -0.000006 -16.867300 -359.728141 26.879183 -6.890289
-35.346195 45.428001 45.157597 1086.358089 0.243172 -3.819306 -0.637400 0.831604 5.390094 -6.154056 -0.804001 1.315805 -0.000003 0.000000 4.429903 5.099788 -0.705323 0.412700 -0.000006 0.000000 10.301398 410.161356 -6.262125 -7.056478 0.000003 -0.000004 2.173889 -356.898722 1.334145 4.249164 2.142398 -0.572703 5.717802 0.636112 -2.517202 -2.855528 5.673995 -0.000007 0.000013 170.440390 158.880623 126.243630 0.000005 0.000000 -12.238699 201.468779 -518.099683 -161.551924 0.000007 -0.000009 -10.253703 -559.036995 -6.589247 22.935905 -2.882601 -1.580095 6.695797 0.310437 -3.636068 30.298238 -4.235607 -0.000008 -0.000000 0.503286 -65.025580 95.112672 0.000006 -0.000002 -10.709894 -65.042874 -18.942242 -25.668899 -0.000003 0.000001 -11.716798 -362.091168 1.626365 13.932357 2.279498 0.210410 -2.475496 374.566208 -14.259243 -4.860358 -0.000005 -0.000003 -20.742800 -17.547519 30.408866 1.544473 -0.000001 0.000003 -16.665997 3.842051 22.038442 12.939079 -1.961892 0.232303 -2.727400 -364.672816 -2.777916 12.955678 -0.000004 -0.000002 -20.526800 516.585512 159.065202 -179.291414 -0.000006 -0.000004 -16.867302 -359.815650 26.908075 -6.877352
-35.343998 45.433403 45.156990 1086.369018 0.231472 -3.830911 -0.637396 0.831598 5.390100 -6.163489 -0.810933 1.316352 -0.000008 0.000006 4.429902 5.128230 -0.708279 0.414738 0.000003 -0.000001 10.301392 410.140292 -6.271819 -7.039009 -0.000002 0.000002 2.173889 -356.926725 1.338443 4.270692 2.142402 -0.572702 5.717798 0.604347 -2.489047 -2.798909 5.673999 -0.000000 0.000006 170.480675 158.868206 126.189849 0.000001 0.000001 -12.238689 201.475417 -518.070559 -161.533988 0.000001 0.000007 -10.253700 -558.960497 -6.579958 22.971893 -2.882594 -1.580101 6.695795 0.281539 -3.621678 30.257902 -4.235607 0.000003 -0.000008 0.543961 -65.070761 95.151768 0.000001 0.000002 -10.709908 -65.016509 -18.976598 -25.669934 0.000001 0.000016 -11.716807 -362.168377 1.630957 13.990315 2.279501 0.210404 -2.475499 374.587764 -14.254945 -4.845616 -0.000002 -0.000003 -20.742804 -17.510201 30.398201 1.525518 -0.000002 0.000006 -16.666002 3.782914 22.063582 12.938007 -1.961897 0.232301 -2.727402 -364.626862 -2.732995 12.969738 0.000000 -0.000012 -20.526796 516.586769 159.111060 -179.321617 0.000003 -0.000004 -16.867298 -359.874772 26.934887 -6.869451
-35.341896 45.438000 45.156193 1086.376339 0.221429 -3.839829 -0.637408 0.831591 5.390097 -6.169205 -0.818821 1.315432 -0.000005 0.000007 4.429902 5.153375 -0.712291 0.416430 -0.000006 -0.000003 10.301408 410.124583 -6.281842 -7.020433 0.000004 0.000003 2.173901 -356.959019 1.344569 4.293410 2.142399 -0.572705 5.717807 0.578094 -2.461363 -2.745017 5.673994 -0.000004 0.000000 170.528623 158.858357 126.144360 0.000010 0.000000 -12.238696 201.471757 -518.034987 -161.516366 0.000006 -0.000008 -10.253695 -558.881595 -6.589888 22.977906 -2.882607 -1.580104 6.695796 0.255524 -3.604644 30.224475 -4.235607 0.000007 -0.000002 0.557624 -65.106463 95.164903 0.000005 -0.000006 -10.709898 -64.990794 -19.015996 -25.666707 -0.000003 -0.000002 -11.716801 -362.257934 1.639090 14.043565 2.279499 0.210394 -2.475496 374.596971 -14.248993 -4.836439 -0.000002 -0.000008 -20.742805 -17.482646 30.388017 1.516111 -0.000001 -0.000003 -16.666000 3.746098 22.084295 12.939045 -1.961901 0.232291 -2.727404 -364.597820 -2.699463 12.979372 -0.000000 -0.000008 -20.526791 516.580703 159.149869 -179.336944 -0.000002 0.000001 -16.867298 -359.905535 26.958905 -6.866195
-35.339901 45.442001 45.155392 1086.381585 0.212807 -3.846091 -0.637400 0.831595 5.390101 -6.172816 -0.828144 1.312467 -0.000005 0.000003 4.429903 5.175517 -0.716865 0.417637 0.000004 -0.000004 10.301407 410.112917 -6.289789 -7.001374 -0.000005 -0.000003 2.173907 -356.994180 1.351393 4.316852 2.142398 -0.572708 5.717810 0.556292 -2.433473 -2.693711 5.673997 0.000001 0.000000 170.583360 158.849832 126.107531 0.000005 0.000003 -12.238693 164.138653 -511.713620 -178.540011 0.000011 0.000002 -10.253701 -524.651146 -6.702099 22.294784 -2.882598 -1.580100 6.695799 0.233096 -3.585563 30.200074 -4.235618 0.000004 0.000000 0.543728 -65.133114 95.150559 0.000002 0.000000 -10.709915 -64.962674 -19.060029 -25.658260 0.000001 0.000008 -11.716800 -362.359513 1.650650 14.090628 2.279499 0.210405 -2.475499 374.595113 -14.242240 -4.832498 -0.000003 -0.000007 -20.742796 -17.470832 30.368879 1.562715 -0.000003 0.000004 -16.666000 3.752894 22.107325 12.893211 -1.961892 0.232298 -2.727403 -364.587001 -2.677824 12.984551 -0.000001 -0.000004 -20.526796 516.568190 159.180564 -179.337600 0.000002 -0.000002 -16.867300 -359.908759 26.979662 -6.867035
-35.338192 45.445305 45.154491 1086.385847 0.205262 -3.849723 -0.637399 0.831597 5.390100 -6.175430 -0.838612 1.307276 -0.000003 -0.000007 4.429894 5.194859 -0.721884 0.418549 -0.000011 0.000004 10.301390 410.104283 -6.293962 -6.982724 -0.000009 0.000000 2.173903 -357.030790 1.357178 4.340388 2.142392 -0.572699 5.717798 0.537753 -2.405305 -2.644847 5.673996 0.000001 -0.000002 170.643807 158.841390 126.079145 0.000010 0.000002 -12.238700 163.853206 -511.661710 -178.682024 0.000005 -0.000001 -10.253695 -524.344716 -6.746762 22.245971 -2.882604 -1.580098 6.695789 0.214191 -3.564496 30.185085 -4.235612 0.000000 0.000000 0.505121 -65.153024 95.110835 0.000014 0.000002 -10.709894 -64.928502 -19.108656 -25.643855 0.000004 0.000008 -11.716805 -362.473112 1.664888 14.130314 2.279507 0.210395 -2.475492 374.583393 -14.235148 -4.832981 0.000000 -0.000006 -20.742804 -17.464915 30.361875 1.567759 0.000001 0.000002 -16.666004 3.754427 22.117811 12.900153 -1.961894 0.232294 -2.727399 -364.594105 -2.667630 12.985645 -0.000004 -0.000001 -20.526800 516.549667 159.203035 -179.324732 0.000005 -0.000000 -16.867302 -359.887394 26.997086 -6.870655
-35.336697 45.448200 45.153591 1086.389891 0.198988 -3.851173 -0.637402 0.831600 5.390100 -6.177831 -0.850371 1.300136 -0.000003 -0.000003 4.429897 5.211797 -0.727041 0.419243 -0.000006 0.000002 10.301396 410.098000 -6.293566 -6.965415 -0.000004 -0.000003 2.173903 -357.067482 1.361490 4.363307 2.142401 -0.572701 5.717798 0.521293 -2.376695 -2.598282 5.673996 0.000002 0.000004 170.708953 158.833372 126.057739 -0.000001 -0.000002 -12.238695 163.480318 -511.606905 -178.866877 0.000007 -0.000003 -10.253702 -523.964356 -6.803667 22.180278 -2.882596 -1.580096 6.695795 0.198514 -3.542056 30.178692 -4.235606 0.000006 -0.000005 0.449029 -65.167702 95.052170 0.000002 -0.000004 -10.709896 -64.888436 -19.159768 -25.623354 0.000008 0.000002 -11.716816 -362.594881 1.681258 14.162099 2.279502 0.210400 -2.475499 374.563585 -14.228293 -4.837119 -0.000002 -0.000002 -20.742805 -17.469049 30.356352 1.580235 -0.000001 0.000001 -16.665997 3.771817 22.124052 12.907236 -1.961893 0.232300 -2.727403 -364.616917 -2.667636 12.983433 0.000003 -0.000003 -20.526806 516.526881 159.217584 -179.300867 0.000004 -0.000003 -16.867300 -359.845238 27.011168 -6.876649
-35.335495 45.450504 45.152794 1086.394699 0.193760 -3.850756 -0.637408 0.831603 5.390097 -6.180832 -0.863274 1.291356 -0.000004 0.000005 4.429895 5.226333 -0.732139 0.419602 0.000000 0.000001 10.301401 410.093218 -6.288657 -6.949653 -0.000001 -0.000002 2.173902 -357.102480 1.363727 4.384907 2.142402 -0.572702 5.717802 0.506356 -2.348217 -2.554832 5.673998 -0.000001 0.000002 170.775725 158.825503 126.043095 0.000002 -0.000001 -12.238697 163.044060 -511.552427 -179.082984 0.000006 0.000004 -10.253699 -523.531104 -6.868716 22.106279 -2.882607 -1.580098 6.695801 0.185900 -3.519337 30.179341 -4.235609 0.000004 -0.000003 0.381687 -65.179293 94.980720 -0.000003 -0.000006 -10.709890 -64.842053 -19.211922 -25.598070 -0.000004 0.000003 -11.716807 -362.720447 1.698929 14.186209 2.279496 0.210405 -2.475500 374.537631 -14.222121 -4.843938 -0.000002 -0.000006 -20.742800 -17.481342 30.352391 1.598185 0.000001 -0.000005 -16.665997 3.801337 22.126379 12.913805 -1.961900 0.232299 -2.727404 -364.652298 -2.675898 12.978560 -0.000001 -0.000010 -20.526802 516.500927 159.225138 -179.268710 0.000002 -0.000004 -16.867304 -359.788138 27.022103 -6.884013
-35.334496 45.452499 45.152088 1086.399726 0.189489 -3.848928 -0.637401 0.831595 5.390098 -6.184241 -0.876389 1.281643 -0.000010 -0.000008 4.429899 5.238864 -0.737172 0.419729 -0.000002 -0.000003 10.301399 410.088765 -6.279760 -6.935866 0.000002 -0.000003 2.173903 -357.134363 1.363962 4.404448 2.142398 -0.572697 5.717808 0.493193 -2.320780 -2.514783 5.673994 -0.000004 -0.000010 170.841213 158.817416 126.034052 0.000007 0.000004 -12.238692 162.568952 -511.500846 -179.318475 0.000007 0.000000 -10.253691 -523.066596 -6.937455 22.030796 -2.882602 -1.580097 6.695802 0.176313 -3.497459 30.185413 -4.235605 0.000002 0.000007 0.309168 -65.188931 94.902419 0.000006 0.000006 -10.709909 -64.790935 -19.263048 -25.569506 0.000002 -0.000003 -11.716805 -362.844866 1.717162 14.204033 2.279498 0.210399 -2.475507 374.508616 -14.216616 -4.852575 0.000002 -0.000005 -20.742804 -17.500056 30.349870 1.619937 0.000000 -0.000003 -16.666000 3.838931 22.125623 12.919700 -1.961895 0.232294 -2.727407 -364.695601 -2.689968 12.971857 0.000001 -0.000000 -20.526800 516.473989 159.227337 -179.231650 -0.000004 -0.000004 -16.867302 -359.722267 27.030417 -6.891983
-35.333694 45.454102 45.151394 1086.405081 0.185853 -3.845945 -0.637399 0.831602 5.390093 -6.187984 -0.888743 1.271399 0.000003 0.000008 4.429896 5.249595 -0.741811 0.419899 0.000001 0.000007 10.301398 410.084448 -6.267970 -6.923824 0.000000 -0.000000 2.173899 -357.162285 1.362744 4.421283 2.142395 -0.572699 5.717800 0.482536 -2.295616 -2.478791 5.673998 0.000003 0.000004 170.900731 158.807936 126.030022 0.000003 0.000001 -12.238696 162.085102 -511.454564 -179.559007 0.000004 0.000002 -10.253699 -522.596679 -7.004186 21.962700 -2.882601 -1.580099 6.695797 0.169036 -3.477232 30.194651 -4.235611 0.000000 -0.000004 0.237048 -65.196997 94.823544 0.000003 -0.000006 -10.709904 -64.737462 -19.311562 -25.539437 0.000004 0.000001 -11.716805 -362.963793 1.734985 14.216563 2.279503 0.210402 -2.475500 374.478426 -14.211863 -4.862258 -0.000001 -0.000010 -20.742800 -17.522405 30.348617 1.643264 -0.000000 0.000001 -16.665997 3.880654 22.122525 12.924555 -1.961893 0.232303 -2.727409 -364.741664 -2.706620 12.964035 0.000010 -0.000005 -20.526800 516.447433 159.226026 -179.193332 0.000003 0.000004 -16.867300 -359.654320 27.036564 -6.900057
